<?xml version="1.0" standalone="no"?>
<!DOCTYPE svg PUBLIC "-//W3C//DTD SVG 20010904//EN"
 "http://www.w3.org/TR/2001/REC-SVG-20010904/DTD/svg10.dtd">
<svg version="1.0" xmlns="http://www.w3.org/2000/svg"
 width="900.000000pt" height="900.000000pt" viewBox="0 0 900.000000 900.000000"
 preserveAspectRatio="xMidYMid meet">

<g transform="translate(0.000000,900.000000) scale(0.100000,-0.100000)"
fill="#000000" stroke="none">
<path d="M2989 8870 c-220 -16 -379 -45 -418 -78 l-21 -17 20 -102 c32 -166
51 -392 48 -573 l-3 -165 -55 -13 c-198 -49 -300 -93 -300 -131 0 -47 84 -78
237 -88 l103 -6 -6 -106 c-8 -135 4 -199 63 -321 45 -92 45 -96 39 -167 l-6
-73 143 -83 c78 -46 197 -117 265 -156 l123 -72 -27 -21 c-25 -20 -74 -113
-74 -140 0 -7 21 -33 46 -59 l46 -47 6 -220 c7 -304 4 -310 -62 -121 -91 262
-362 761 -461 848 -20 17 -39 31 -43 31 -4 0 -16 -16 -27 -36 -17 -30 -46 -50
-190 -126 -267 -141 -372 -206 -416 -257 -66 -77 -699 -1079 -755 -1194 -35
-74 -53 -142 -205 -806 -114 -496 -112 -462 -28 -476 21 -4 39 -9 39 -12 0 -3
-20 -24 -44 -47 -124 -122 -159 -304 -86 -453 26 -51 44 -73 104 -118 41 -30
81 -55 90 -55 8 0 36 -5 60 -12 40 -10 47 -10 65 6 11 10 22 37 26 67 6 40 12
52 33 63 116 61 172 261 117 417 l-14 38 43 -5 c24 -4 46 -2 49 3 3 5 53 205
111 444 142 590 152 618 258 771 79 113 352 477 359 478 3 0 2 -33 -3 -72 -4
-40 -19 -179 -33 -308 -14 -129 -34 -278 -45 -330 -19 -91 -203 -717 -291
-986 -49 -152 -55 -139 104 -210 60 -26 111 -53 114 -59 6 -17 -308 -937 -362
-1062 -23 -51 -64 -98 -878 -1007 -248 -276 -258 -290 -253 -321 6 -31 1 -38
-86 -126 -105 -106 -201 -240 -191 -267 21 -59 209 -282 237 -282 7 0 25 13
41 30 l29 30 47 -90 c56 -107 176 -268 234 -316 60 -48 112 -63 264 -75 168
-14 278 -9 292 11 13 19 4 92 -16 130 -16 30 -122 100 -185 121 -92 31 -149
148 -174 356 l-7 53 29 -6 c25 -5 35 2 87 58 428 463 574 624 830 913 87 99
193 216 234 260 58 61 87 103 124 177 64 132 200 439 278 630 35 87 66 158 69
158 3 0 16 -19 29 -43 42 -75 429 -721 451 -752 30 -44 52 -118 379 -1295 50
-179 95 -335 101 -347 6 -15 18 -23 35 -23 l25 0 1 -132 c0 -73 6 -169 12
-213 16 -106 18 -107 236 -109 l166 -1 3 51 3 52 50 -19 c245 -93 427 -91 712
8 174 60 187 67 187 101 -1 41 -33 105 -70 136 l-33 27 -196 -3 -196 -3 -65
32 c-64 31 -230 157 -237 180 -2 6 12 16 31 23 28 9 36 17 36 35 0 13 -75 299
-166 637 -91 337 -184 692 -205 788 -71 324 -82 353 -371 1030 l-276 645 35
510 c19 280 37 512 39 515 3 2 21 -14 40 -38 50 -60 753 -662 774 -662 18 0
310 404 310 429 0 9 -136 124 -321 270 -184 147 -327 267 -335 283 -43 83
-263 697 -330 923 -44 145 -52 162 -120 245 -104 126 -157 206 -186 275 -34
80 -32 117 6 175 l24 37 95 -5 c172 -9 233 35 282 203 36 128 81 185 144 185
30 0 44 6 55 22 23 33 21 45 -35 158 -52 107 -79 191 -79 246 l0 31 108 6
c156 9 252 41 252 83 0 39 -101 83 -298 131 l-74 18 1 205 c2 202 10 348 32
547 7 56 9 109 6 117 -19 49 -491 88 -808 66z"/>
<path d="M4586 4558 c-8 -13 -53 -83 -100 -157 -47 -74 -86 -140 -86 -148 0
-7 29 -34 65 -60 40 -28 65 -54 65 -65 0 -30 29 -91 57 -120 33 -34 160 -88
208 -88 20 0 77 11 126 25 49 14 95 22 102 18 7 -4 83 -72 169 -151 422 -388
825 -660 1458 -985 118 -61 217 -112 219 -114 3 -2 -11 -20 -30 -39 -106 -113
-465 -184 -926 -184 -198 0 -325 -13 -459 -45 -96 -24 -104 -25 -180 -11 -135
23 -199 70 -251 181 -26 57 -28 68 -28 200 0 77 3 159 8 183 l7 43 -29 -16
c-54 -27 -149 -125 -176 -178 -53 -109 -51 -276 5 -395 50 -108 184 -217 290
-239 17 -3 29 -8 28 -12 -2 -3 -20 -40 -40 -81 -58 -117 -68 -172 -78 -400 -9
-223 -18 -277 -54 -348 -23 -46 -114 -140 -189 -197 -21 -15 -42 -36 -47 -46
-8 -13 -78 -313 -116 -490 -8 -38 13 -42 156 -34 97 6 120 11 125 24 2 9 18
74 34 144 15 71 32 132 37 137 5 4 88 52 184 105 310 173 427 269 553 449 34
49 76 105 92 123 l30 34 80 -41 c187 -94 439 -182 605 -210 36 -6 76 -13 90
-16 l26 -5 -8 -82 c-13 -131 -69 -389 -103 -470 -9 -23 -44 -61 -96 -104 -45
-37 -88 -81 -96 -97 -20 -38 -28 -134 -14 -168 9 -24 16 -28 48 -28 112 1 249
52 329 122 50 44 73 88 170 328 128 317 127 314 119 389 -4 36 -9 70 -12 78
-3 7 0 13 6 13 6 0 11 -5 11 -10 0 -9 131 -211 556 -856 73 -111 143 -209 156
-218 18 -13 50 -16 168 -16 80 0 162 3 183 6 l37 7 0 56 c0 41 -7 71 -25 108
-29 57 -45 66 -145 83 -35 7 -73 16 -82 21 -23 12 -67 101 -156 310 -64 151
-195 498 -237 626 l-16 52 51 63 c68 84 136 219 161 318 15 63 48 365 49 461
0 10 -24 26 -67 44 -184 77 -354 171 -515 287 -54 38 -180 111 -280 162 -584
295 -1132 673 -1595 1099 l-132 122 -1 93 c0 81 -4 101 -27 150 -59 121 -215
236 -360 267 -88 19 -90 19 -107 -7z"/>
<path d="M7600 3530 c-117 -21 -152 -51 -286 -248 -59 -86 -152 -221 -207
-300 -97 -140 -99 -144 -81 -162 60 -58 324 -220 487 -300 100 -48 191 -91
203 -94 18 -6 26 6 68 98 26 57 61 119 77 139 l29 36 199 -6 c249 -8 273 -2
351 76 54 55 170 236 170 266 0 20 -20 31 -225 124 l-170 76 -45 68 c-59 86
-88 115 -152 154 -94 57 -304 94 -418 73z m275 -487 c30 -144 14 -255 -40
-269 -14 -3 -65 -4 -113 -2 -101 5 -163 31 -224 95 -39 40 -82 125 -93 183 -6
34 -5 33 24 -16 42 -72 116 -145 176 -174 34 -17 72 -26 120 -28 102 -6 100
-10 99 217 l-1 186 19 -60 c10 -33 25 -92 33 -132z"/>
<path d="M5797 1478 c-8 -13 -32 -55 -55 -93 -23 -41 -67 -95 -102 -128 -51
-47 -61 -61 -56 -80 20 -69 18 -185 -4 -285 l-22 -103 27 -54 c69 -141 250
-420 310 -475 25 -24 33 -25 175 -28 145 -3 148 -3 164 20 21 30 20 93 -3 145
-22 48 -31 54 -130 81 -41 12 -84 31 -96 42 -39 36 -95 170 -101 242 -6 59 0
87 71 344 42 153 79 286 81 295 7 24 -25 46 -104 74 -92 32 -137 33 -155 3z"/>
</g>
</svg>
